# xmcd
#
# Track frame offsets:
#	150
#	20911
#	41854
#	67893
#	87694
#	107003
#	130691
#	154487
#	174897
#	194165
#	221322
#	238685
#	258479
#
# Disc length: 3757 seconds
#
# Revision: 1
# Processed by: cddbd v1.4PL0 Copyright (c) Steve Scherf et al.
# Submitted via: CDmax 1.8
#
DISCID=be0eab0d
DTITLE=Ivan Neville - Saturday Morning Music
DYEAR=2002
DGENRE=Blues
TTITLE0=What You Want From Me
TTITLE1=Ugly Truth
TTITLE2=Ghetto Street
TTITLE3=Lost Ball
TTITLE4=A Lil' Humility
TTITLE5=Dance for Free
TTITLE6=Before It's Gone
TTITLE7=Scrape
TTITLE8=Nothin' 'Bout Love
TTITLE9=Ode to 5 am
TTITLE10=Life's Been Good
TTITLE11=Silence is Better
TTITLE12=With You All ALong
EXTD=
EXTT0=
EXTT1=
EXTT2=
EXTT3=
EXTT4=
EXTT5=
EXTT6=
EXTT7=
EXTT8=
EXTT9=
EXTT10=
EXTT11=
EXTT12=
PLAYORDER=
